<svg width="111" height="64" viewBox="0 0 111 64" fill="none" xmlns="http://www.w3.org/2000/svg">
<rect width="110.194" height="63.851" transform="translate(0.40332 0.074707)" fill="#F2F2F3"/>
<g clip-path="url(#clip0_322_10694)">
<path fill-rule="evenodd" clip-rule="evenodd" d="M55.499 10.0757C51.08 10.0757 47.499 13.6567 47.499 18.0757C47.499 22.4937 51.08 26.0757 55.499 26.0757C59.917 26.0757 63.499 22.4937 63.499 18.0757C63.499 13.6577 59.917 10.0757 55.499 10.0757ZM60.054 21.9807C57.898 24.4967 54.111 24.7877 51.595 22.6307C49.078 20.4747 48.788 16.6867 50.945 14.1717C53.1 11.6547 56.888 11.3647 59.404 13.5217C61.919 15.6767 62.21 19.4657 60.054 21.9807Z" fill="#A4A1AA"/>
<path fill-rule="evenodd" clip-rule="evenodd" d="M55.499 14.0757C53.29 14.0757 51.5 15.8667 51.499 18.0747V18.0767C51.499 18.3517 51.723 18.5767 51.999 18.5767C52.275 18.5767 52.499 18.3517 52.499 18.0767V18.0747C52.5 16.4187 53.842 15.0757 55.499 15.0757C55.775 15.0757 55.999 14.8517 55.999 14.5757C55.999 14.2997 55.775 14.0757 55.499 14.0757Z" fill="#A4A1AA"/>
<path fill-rule="evenodd" clip-rule="evenodd" d="M68.991 9.11671L64.657 8.39371L63.284 4.95971C62.825 3.81471 61.731 3.07471 60.499 3.07471H50.499C49.267 3.07471 48.173 3.81471 47.713 4.96071L46.341 8.39371L42.008 9.11671C40.554 9.35771 39.499 10.6017 39.499 12.0747V27.0747C39.499 28.7287 40.845 30.0747 42.499 30.0747H68.499C70.153 30.0747 71.499 28.7287 71.499 27.0747V12.0747C71.499 10.6017 70.444 9.35771 68.991 9.11671ZM69.499 27.0747C69.499 27.6277 69.052 28.0747 68.499 28.0747H42.499C41.946 28.0747 41.499 27.6277 41.499 27.0747V12.0747C41.499 11.5857 41.853 11.1687 42.335 11.0887L47.779 10.1817L49.57 5.70371C49.723 5.32471 50.09 5.07471 50.499 5.07471H60.499C60.907 5.07471 61.274 5.32371 61.427 5.70371L63.218 10.1817L68.663 11.0887C69.145 11.1687 69.499 11.5857 69.499 12.0747V27.0747Z" fill="#A4A1AA"/>
</g>
<path d="M15.0689 60.4827H12.9569V45.6987H15.0689V60.4827ZM7.14885 46.7387C7.70352 46.7387 8.21552 46.8614 8.68485 47.1067C9.16485 47.352 9.57552 47.704 9.91685 48.1627C10.2582 48.6107 10.5249 49.16 10.7169 49.8107C10.9195 50.4507 11.0209 51.176 11.0209 51.9867C11.0209 52.7974 10.9195 53.528 10.7169 54.1787C10.5249 54.8294 10.2582 55.384 9.91685 55.8427C9.57552 56.3014 9.16485 56.6534 8.68485 56.8987C8.21552 57.144 7.70352 57.2667 7.14885 57.2667C6.59419 57.2667 6.07685 57.144 5.59685 56.8987C5.12752 56.6534 4.72218 56.3014 4.38085 55.8427C4.03952 55.384 3.76752 54.8294 3.56485 54.1787C3.37285 53.528 3.27685 52.7974 3.27685 51.9867C3.27685 51.176 3.37285 50.4507 3.56485 49.8107C3.76752 49.16 4.03952 48.6107 4.38085 48.1627C4.72218 47.704 5.12752 47.352 5.59685 47.1067C6.07685 46.8614 6.59419 46.7387 7.14885 46.7387ZM7.14885 48.6427C6.60485 48.6427 6.16219 48.9254 5.82085 49.4907C5.47952 50.056 5.30885 50.888 5.30885 51.9867C5.30885 53.0854 5.47952 53.9227 5.82085 54.4987C6.16219 55.064 6.60485 55.3467 7.14885 55.3467C7.69285 55.3467 8.13552 55.064 8.47685 54.4987C8.81819 53.9227 8.98885 53.0854 8.98885 51.9867C8.98885 50.888 8.81819 50.056 8.47685 49.4907C8.13552 48.9254 7.69285 48.6427 7.14885 48.6427ZM29.7876 60.4827H27.6756V45.7147H29.7876V60.4827ZM25.3876 56.9467H18.2996V47.0427H25.3876V56.9467ZM20.3796 55.2827H23.3076V48.7067H20.3796V55.2827ZM44.5064 60.4507H42.3944V45.7147H44.5064V60.4507ZM37.9944 49.6827C37.9944 50.28 38.069 50.8827 38.2184 51.4907C38.3677 52.088 38.5917 52.6534 38.8904 53.1867C39.1997 53.72 39.5784 54.2 40.0264 54.6267C40.485 55.0534 41.0237 55.3947 41.6424 55.6507L40.4904 57.3147C39.6264 56.9414 38.901 56.4187 38.3144 55.7467C37.7384 55.064 37.285 54.2694 36.9544 53.3627C36.6237 54.3334 36.1597 55.1974 35.5624 55.9547C34.9757 56.712 34.2504 57.288 33.3864 57.6827L32.1864 56.0027C32.805 55.7254 33.3437 55.3574 33.8024 54.8987C34.261 54.44 34.6397 53.9334 34.9384 53.3787C35.2477 52.8134 35.477 52.216 35.6264 51.5867C35.7757 50.9467 35.8504 50.312 35.8504 49.6827V48.8667H32.7784V47.1227H41.0344V48.8667H37.9944V49.6827ZM51.3141 52.1147C52.0821 52.0294 52.7541 51.8854 53.3301 51.6827C53.9168 51.4694 54.4074 51.224 54.8021 50.9467C55.2074 50.6694 55.5221 50.3707 55.7461 50.0507C55.9808 49.72 56.1301 49.3947 56.1941 49.0747H51.8421V47.3947H56.2261V45.7467H58.3381V47.3947H62.7541V49.0747H58.3861C58.4501 49.384 58.5941 49.704 58.8181 50.0347C59.0528 50.3547 59.3728 50.6587 59.7781 50.9467C60.1834 51.224 60.6741 51.4694 61.2501 51.6827C61.8368 51.8854 62.5088 52.0294 63.2661 52.1147L62.5141 53.7787C61.2554 53.6294 60.1888 53.32 59.3141 52.8507C58.4501 52.3814 57.7781 51.8107 57.2981 51.1387C56.8181 51.8107 56.1461 52.3814 55.2821 52.8507C54.4181 53.32 53.3408 53.6294 52.0501 53.7787L51.3141 52.1147ZM58.3381 56.2427V60.4827H56.2261V56.2427H50.6581V54.5307H63.9701V56.2427H58.3381ZM76.8969 53.0747V60.4187H74.7849V45.6987H76.8969V51.3307H78.9609V53.0747H76.8969ZM72.9769 47.2187C72.9769 48.328 72.8649 49.3947 72.6409 50.4187C72.4169 51.432 72.0435 52.392 71.5209 53.2987C71.0089 54.1947 70.3315 55.032 69.4889 55.8107C68.6569 56.5894 67.6275 57.288 66.4009 57.9067L65.2169 56.2907C66.9342 55.4054 68.2515 54.3707 69.1689 53.1867C70.0969 51.992 70.6569 50.5734 70.8489 48.9307H66.0329V47.2187H72.9769ZM91.6476 53.2187V60.4507H89.5356V45.7147H91.6476V51.4747H93.7596V53.2187H91.6476ZM88.5756 47.8907V49.5707H79.9996V47.8907H83.2636V45.9707H85.3756V47.8907H88.5756ZM84.3356 50.4027C84.8689 50.4027 85.3596 50.488 85.8076 50.6587C86.2663 50.8294 86.6609 51.0747 86.9916 51.3947C87.3223 51.704 87.5783 52.072 87.7596 52.4987C87.9516 52.9254 88.0476 53.3947 88.0476 53.9067C88.0476 54.4294 87.9516 54.9094 87.7596 55.3467C87.5783 55.7734 87.3223 56.1467 86.9916 56.4667C86.6609 56.776 86.2663 57.016 85.8076 57.1867C85.3596 57.3574 84.8689 57.4427 84.3356 57.4427C83.8023 57.4427 83.3063 57.3574 82.8476 57.1867C82.3889 57.016 81.9889 56.776 81.6476 56.4667C81.3169 56.1467 81.0556 55.7734 80.8636 55.3467C80.6823 54.9094 80.5916 54.4294 80.5916 53.9067C80.5916 53.3947 80.6823 52.9254 80.8636 52.4987C81.0556 52.072 81.3169 51.704 81.6476 51.3947C81.9889 51.0747 82.3889 50.8294 82.8476 50.6587C83.3063 50.488 83.8023 50.4027 84.3356 50.4027ZM84.3356 55.7147C84.8476 55.7147 85.2583 55.56 85.5676 55.2507C85.8876 54.9307 86.0476 54.4827 86.0476 53.9067C86.0476 53.352 85.8876 52.9147 85.5676 52.5947C85.2583 52.2747 84.8476 52.1147 84.3356 52.1147C83.8236 52.1147 83.4076 52.2747 83.0876 52.5947C82.7676 52.904 82.6076 53.3467 82.6076 53.9227C82.6076 54.4987 82.7676 54.9414 83.0876 55.2507C83.4076 55.56 83.8236 55.7147 84.3356 55.7147ZM107.07 60.4347H104.942V45.6987H107.07V60.4347ZM102.686 47.2347C102.686 48.3547 102.58 49.4267 102.366 50.4507C102.153 51.4747 101.785 52.44 101.262 53.3467C100.75 54.2427 100.062 55.08 99.1984 55.8587C98.3344 56.6267 97.2464 57.3254 95.9344 57.9547L94.8304 56.2907C95.769 55.8427 96.5797 55.3627 97.2624 54.8507C97.945 54.328 98.5157 53.7627 98.9744 53.1547C99.433 52.5467 99.785 51.8907 100.03 51.1867C100.286 50.4827 100.452 49.7254 100.526 48.9147H95.6144V47.2347H102.686Z" fill="#A4A1AA"/>
<defs>
<clipPath id="clip0_322_10694">
<rect width="32" height="32" fill="white" transform="translate(39.501 0.074707)"/>
</clipPath>
</defs>
</svg>
